<svg width="218.94248046875px" height="150.2837890625px" xmlns="http://www.w3.org/2000/svg" viewBox="140.528759765625 -0.14189453125000284 218.94248046875 150.2837890625" style="background-color: rgba(0, 0, 0, 0);" preserveAspectRatio="xMidYMid"><defs><filter id="editing-hole" x="-100%" y="-100%" width="300%" height="300%"><feFlood flood-color="#000" result="black"></feFlood><feMorphology operator="dilate" radius="2" in="SourceGraphic" result="erode"></feMorphology><feGaussianBlur in="erode" stdDeviation="4" result="blur"></feGaussianBlur><feOffset in="blur" dx="2" dy="2" result="offset"></feOffset><feComposite operator="atop" in="offset" in2="black" result="merge"></feComposite><feComposite operator="in" in="merge" in2="SourceGraphic" result="inner-shadow"></feComposite></filter></defs><g filter="url(#editing-hole)"><g transform="translate(176.6949987411499, 107.23531341552734)"><path d="M31.77-3.08L31.77-3.08L31.77-3.08Q44.18-3.08 51.70-9.81L51.70-9.81L51.70-9.81Q59.22-16.54 59.22-30.10L59.22-30.10L59.22-30.10Q59.22-43.65 50.73-51.66L50.73-51.66L50.73-51.66Q42.24-59.66 29.74-59.66L29.74-59.66L29.74-59.66Q21.74-59.66 15.84-59.22L15.84-59.22L15.84-3.78L15.84-3.78Q21.56-3.08 31.77-3.08ZM29.74-63.54L29.74-63.54L29.74-63.54Q44.26-63.54 54.03-54.52L54.03-54.52L54.03-54.52Q63.80-45.50 63.80-30.01L63.80-30.01L63.80-30.01Q63.80-22.18 61.29-16.15L61.29-16.15L61.29-16.15Q58.78-10.12 54.38-6.51L54.38-6.51L54.38-6.51Q45.32 0.79 31.77 0.79L31.77 0.79L31.77 0.79Q22.88 0.79 11.62-0.18L11.62-0.18L11.62-62.92L11.62-62.92Q20.59-63.54 29.74-63.54ZM134.99 0L130.77 0L130.77-31.50L87.56-31.50L87.56 0L83.34 0L83.34-62.92L87.56-62.92L87.56-35.29L130.77-35.29L130.77-62.92L134.99-62.92L134.99 0Z" fill="#ccc"></path></g></g><style>text {
  font-size: 64px;
  font-family: Arial Black;
  dominant-baseline: central;
  text-anchor: middle;
}</style></svg>