<svg width="407.855029296875px" height="274.00126953125px" xmlns="http://www.w3.org/2000/svg" viewBox="46.072485351562506 -62.000634765624994 407.855029296875 274.00126953125" style="background-color: rgba(0, 0, 0, 0);" preserveAspectRatio="xMidYMid"><defs><filter id="editing-hole" x="-100%" y="-100%" width="300%" height="300%"><feFlood flood-color="#000000" result="black"></feFlood><feMorphology operator="dilate" radius="2" in="SourceGraphic" result="erode"></feMorphology><feGaussianBlur in="erode" stdDeviation="4" result="blur"></feGaussianBlur><feOffset in="blur" dx="2" dy="2" result="offset"></feOffset><feComposite operator="atop" in="offset" in2="black" result="merge"></feComposite><feComposite operator="in" in="merge" in2="SourceGraphic" result="inner-shadow"></feComposite></filter></defs><g filter="url(#editing-hole)"><g transform="translate(107.56000518798828, 137.4453125)"><path d="M61.73-5.99L61.73-5.99L61.73-5.99Q85.84-5.99 100.46-19.07L100.46-19.07L100.46-19.07Q115.08-32.15 115.08-58.48L115.08-58.48L115.08-58.48Q115.08-84.82 98.58-100.38L98.58-100.38L98.58-100.38Q82.08-115.94 57.80-115.94L57.80-115.94L57.80-115.94Q42.24-115.94 30.78-115.08L30.78-115.08L30.78-7.35L30.78-7.35Q41.90-5.99 61.73-5.99ZM57.80-123.46L57.80-123.46L57.80-123.46Q86.01-123.46 104.99-105.93L104.99-105.93L104.99-105.93Q123.98-88.41 123.98-58.31L123.98-58.31L123.98-58.31Q123.98-43.09 119.10-31.38L119.10-31.38L119.10-31.38Q114.23-19.67 105.68-12.65L105.68-12.65L105.68-12.65Q88.07 1.54 61.73 1.54L61.73 1.54L61.73 1.54Q44.46 1.54 22.57-0.34L22.57-0.34L22.57-122.27L22.57-122.27Q40.01-123.46 57.80-123.46ZM262.31 0L254.11 0L254.11-61.22L170.15-61.22L170.15 0L161.94 0L161.94-122.27L170.15-122.27L170.15-68.57L254.11-68.57L254.11-122.27L262.31-122.27L262.31 0Z" fill="#767676"></path></g></g><style>text {
  font-size: 64px;
  font-family: Arial Black;
  dominant-baseline: central;
  text-anchor: middle;
}</style></svg>